<svg id="Layer_1" data-name="Layer 1" xmlns="http://www.w3.org/2000/svg" xmlns:xlink="http://www.w3.org/1999/xlink" viewBox="0 0 1876.27 1818.72"><defs><style>.cls-1{fill:url(#linear-gradient);}</style><linearGradient id="linear-gradient" x1="645.68" y1="968.25" x2="1854.32" y2="968.25" gradientUnits="userSpaceOnUse"><stop offset="0" stop-color="#00aeef"/><stop offset="1" stop-color="#2e3192"/></linearGradient></defs><path class="cls-1" d="M645.68,1071V581.45a23.45,23.45,0,0,0,1.75-8.39c.07-1.75.13-3.51.31-5.26A219.68,219.68,0,0,1,660.94,512a215.79,215.79,0,0,1,63.27-88.85A212.44,212.44,0,0,1,787.64,386a219.07,219.07,0,0,1,57.82-13c1.58-.14,3.13-.54,4.7-.82h802.56c1.41.27,2.81.59,4.23.78,6.65.9,13.35,1.52,20,2.67a213.3,213.3,0,0,1,66.18,23.42,215.94,215.94,0,0,1,58.13,46.55,212.8,212.8,0,0,1,40.57,67.45c5.83,15.63,10.23,31.63,11.78,48.32a37.5,37.5,0,0,0,.75,3.74v525c-.36,3.16-.67,6.33-1.09,9.49A291.55,291.55,0,0,1,1827,1188a291.52,291.52,0,0,1-97.33,114q-35.06,23.92-70.26,47.66-37.73,25.56-75.49,51.07-55.41,37.52-110.81,75-27.4,18.55-54.78,37.15a292.81,292.81,0,0,1-133,49.84c-4.28.48-8.55,1.06-12.82,1.58h-40.32c-1.41-.25-2.82-.57-4.24-.73-6.67-.79-13.38-1.29-20-2.33-42-6.55-80.9-21.28-116.34-44.87q-25-16.6-49.8-33.41-41-27.6-82-55.24-66-44.52-132.11-89-26.87-18.09-53.71-36.2A285.51,285.51,0,0,1,736.49,1272a291,291,0,0,1-58.12-78.18,278.54,278.54,0,0,1-21.14-54.47c-5.22-19.34-8.91-39-9.86-59A30.69,30.69,0,0,0,645.68,1071Zm807,60.68c-2.56-2.83-2.4-5.92-2.49-9-.09-3.2-.19-6.4-.27-9.6-.06-2.61-.47-5.08-2.21-7.18a5.06,5.06,0,0,1-1-2.14c-.33-1.72-.2-3.58-.8-5.19s-2.31-3.12-2.81-4.86a20.25,20.25,0,0,0-3.68-6.62c-1.63-2.14-3.62-4-4.2-6.85a2.44,2.44,0,0,0-.81-1.15c-3.06-2.77-5.28-6.33-8.54-8.94-1.47-1.17-2.52-2.86-3.94-4.11-2.13-1.87-4-4.15-6.74-5.19-2.61-1-4.59-2.89-6.59-4.68-2.5-2.24-5-4.42-8.15-5.7a6.81,6.81,0,0,1-2-1.32c-2.68-2.49-5.37-5-9-6a2.46,2.46,0,0,1-1.22-.73,7.46,7.46,0,0,0-4.59-2.35,3.14,3.14,0,0,1-1.72-.77c-2.47-3-6.52-3.16-9.41-5.49a26.2,26.2,0,0,0-7.11-3.82,30.83,30.83,0,0,1-9.87-5.67,3.29,3.29,0,0,0-1.64-.93,18,18,0,0,1-8.75-3.6,8,8,0,0,0-2.29-.65,6.55,6.55,0,0,1-2.21-.87c-1.77-1.47-3.91-2.06-6-2.94-2.74-1.17-5.18-3.07-8.31-3.32a1.46,1.46,0,0,1-.83-.45,12.23,12.23,0,0,0-7-2.91,5.83,5.83,0,0,1-2.68-.95,11.14,11.14,0,0,0-5.75-2.14c-3.85-.48-6.57-4-10.66-4a2.85,2.85,0,0,1-1.66-.89c-1.49-1.45-3.39-1.64-5.28-2a11.75,11.75,0,0,1-4.53-1.36,18.23,18.23,0,0,0-5.14-2.44c-2.12-.65-2.41-1.83-1.12-3.57,2.15-2.91,5.21-5.22,5.85-9.12.09-.54.81-1,1.17-1.47a10.37,10.37,0,0,0,1.73-2.78c.94-3.18,3-5.57,5.11-8a5.44,5.44,0,0,0,1.52-2.35c.36-2.37,1.85-4,3.24-5.73,1.75-2.22,4.12-4.11,4.33-7.26a.67.67,0,0,1,.2-.43c2.42-1.81,3.21-4.69,4.69-7.12,2-3.23,5-5.77,6-9.63.22-.82,1.24-1.42,1.83-2.16,1.38-1.73,2.78-3.45,4-5.26a48.74,48.74,0,0,0,2.67-4.52c1.58-2.92,4.38-5.07,5.31-8.43.2-.71.94-1.27,1.4-1.92,1.48-2.06,3.28-4,4.32-6.23a29.79,29.79,0,0,1,5.66-8.17,4.3,4.3,0,0,0,1.35-1.9c.42-2.89,2.3-4.93,4-7a15.35,15.35,0,0,0,3.62-6.05c.37-1.44,1.68-1.68,3.11-.88a21.29,21.29,0,0,0,3.33,1.83c3.32,1.13,5.78,4,9.39,4.52a1.41,1.41,0,0,1,.77.54c1.28,1.63,3.13,2.1,5,2.56a7.92,7.92,0,0,1,2.17.95c5.56,3.36,10.71,7.43,16.87,9.74a3,3,0,0,1,1.13.86c1.29,1.44,3.21,1.32,4.76,2s3,2.36,4.73,3,3.4,1.62,5.09,2.42c2.84,1.36,5.92,2.18,8.33,4.36,4,.21,6.46,4.09,10.4,4.47,2.14,2.19,5.14,2.3,7.74,3.37,3.37,1.37,6.57,3.14,10.16,3.95,2.25,2.18,5.17,2.35,8,2.68a13.38,13.38,0,0,1,6.33,2,6.49,6.49,0,0,0,3.13,1c5.58.38,11.17.75,16.76.87,2.42,0,4.79,0,7,1a3.79,3.79,0,0,0,3.68-.08c2-1.24,4.24-1.33,6.49-1.37q6.72-.15,13.43-.32c1.61,0,3.24-.06,4.56-1.16a9.62,9.62,0,0,1,5.36-1.84,12.23,12.23,0,0,0,5.81-2,8.74,8.74,0,0,1,4-1.49c2.48-.26,4.65-.81,6.41-2.75.59-.64,1.73-.74,2.59-1.16a24.2,24.2,0,0,0,2.93-1.57c3-2,5.33-5,9.17-5.76.66-.13,1.17-1,1.78-1.52,4.06-3.33,7.73-7.06,11.51-10.7,4.13-4,8.37-7.83,12.56-11.73,4.44-4.11,8-9.1,12.58-13.05a12,12,0,0,0,1-1l8.87-9.9c.63-.71,1.28-1.4,1.84-2.16,2-2.69,3.94-5.39,5.85-8.12,2.09-3,4.9-5.37,6.59-8.68a30.43,30.43,0,0,1,4.62-6.62,20.88,20.88,0,0,0,4.38-6.75c1-2.6,3-4.83,3.76-7.63.11-.43.57-.76.87-1.12,2.24-2.7,4.62-5.28,5.48-8.85a4.3,4.3,0,0,1,1.32-1.94c2.55-2.38,1.92-6.42,4.67-8.74.61-.51.58-1.77.84-2.69a3.29,3.29,0,0,1,.08-.47q2.1-5.55,4.24-11.09a2.3,2.3,0,0,1,.57-.76,7.66,7.66,0,0,0,2.11-4.21,6.32,6.32,0,0,1,1-2.64,9.65,9.65,0,0,0,2-5.78,8.74,8.74,0,0,1,2.19-5.68,7.12,7.12,0,0,0,1.29-3.49c.26-1.56,0-3.21.32-4.77a11.28,11.28,0,0,1,1.41-4.48,11.93,11.93,0,0,0,2-6.76c0-1.92-.06-3.85.11-5.76a13.64,13.64,0,0,0-3.55-10.91c-2.39-2.7-5.28-4.58-8-6.71a3.53,3.53,0,0,0-1.8-.55c-2.72-.24-5.4-.43-7.84,1.34a18,18,0,0,1-3.49,1.53,8.23,8.23,0,0,0-2.13,1,138.42,138.42,0,0,0-14,13.7c-2.58,3-5.32,5.9-8.1,8.73-4.21,4.3-8.68,8.34-12.74,12.77-5.14,5.62-10.57,10.94-16,16.28-4.16,4.12-8.12,8.46-12.48,12.36-3.49,3.12-6.31,7.25-11.27,8.5-.57.14-1,.73-1.51,1.13-4.27,3.46-7.71,8.09-13.46,9.48-.42.11-.73.61-1.13.86-1.08.65-2.16,1.29-3.27,1.88a29.78,29.78,0,0,0-3,1.44c-3.58,2.39-7.84,3.27-11.59,5.26a3.68,3.68,0,0,1-1.41.26,12.91,12.91,0,0,0-5.85,1.92,8.49,8.49,0,0,1-4.1,1.1c-4.79.13-9.6.14-14.39,0a8.23,8.23,0,0,1-4.07-1.17,10.94,10.94,0,0,0-5.88-1.72c-2.3-.06-4.42-.5-6.09-2.33a3.81,3.81,0,0,0-2.1-1,9.07,9.07,0,0,1-5.51-2.6,4.76,4.76,0,0,0-2.14-1c-3.24-.89-5.57-3.68-9-4.26-.65-.11-1.14-1-1.77-1.54-2-1.57-3.93-3.22-6-4.63-2.77-1.87-5.62-3.57-8-6a16,16,0,0,0-4.79-3.86c-4.07-1.71-7.27-4.53-10.54-7.3-2-1.74-3.81-3.84-6.74-4.23-.71-.09-1.32-.85-2-1.29-2.91-1.89-5.07-4.91-8.7-5.72a1.7,1.7,0,0,1-.77-.55c-3.44-3.64-8.31-5.24-12.05-8.44a3.09,3.09,0,0,0-1.32-.53c-4-1-7-3.62-10.57-5.41s-6-5.33-10.22-5.84c-.41-.05-.77-.54-1.18-.78-1.36-.79-2.71-1.64-4.13-2.32-2.7-1.31-5-3.36-8.12-3.9a2.19,2.19,0,0,1-1.14-.83,8,8,0,0,0-4.1-2.32,16.49,16.49,0,0,1-3-1.47c-2.93-1.6-5.69-3.72-8.81-4.7-3.85-1.21-7-3.89-10.87-4.88-1.32-.34-2.38-1.74-3.7-2.08-3.91-1-6.64-4.38-10.67-5.06-1.36-1.52-3.19-2-5.1-2.38a4.53,4.53,0,0,1-2.53-1.18c-1.48-1.84-3.63-1.81-5.54-2.52s-3.63-1.95-5.48-2.83a5.67,5.67,0,0,0-2.36-.4c-2.61,0-4.27-2.08-6.51-2.79s-4.78-.61-6.87-2a6.06,6.06,0,0,0-1.2-.79,13.78,13.78,0,0,0-3.6-1.13c-2.77-.21-5.37-.66-7.62-2.47a4.94,4.94,0,0,0-2.26-.71c-2.86-.43-5.65-.9-8-2.87-.76-.64-2.09-.69-3.18-.81-1.43-.16-2.89,0-4.31-.2s-3.07-.17-4.15-.92c-2.94-2-6.26-2.23-9.59-2.63-1.57-.2-3.45-.13-4.62-1-2.83-2-5.92-2.21-9.13-2.21a12.55,12.55,0,0,1-7.24-2.09,11.4,11.4,0,0,0-4.5-1.4,40.18,40.18,0,0,0-5.27-.24,12.48,12.48,0,0,1-6.87-1.75c-1.66-1.1-3.61-1.21-5.54-1.32-5.11-.3-10.21-.64-15.32-.92a13.82,13.82,0,0,1-6-1.44,10.06,10.06,0,0,0-4.55-1.18q-17-.11-34.08.06a8.83,8.83,0,0,0-4.14.93,17.27,17.27,0,0,1-7.84,1.9c-3.35.19-6.7.47-10.06.62a13.67,13.67,0,0,0-6.45,1.55,12.62,12.62,0,0,1-6,1.47c-1.76.07-3.53,0-5.27.24a9.37,9.37,0,0,0-4.12,1c-2.78,2-5.84,2.45-9.08,2.56-1.76.06-3.57.12-5,1.3a9.71,9.71,0,0,1-5.35,1.88,12.85,12.85,0,0,0-5.79,2.07,10.28,10.28,0,0,1-4.46,1.43c-2.45.25-4.73.54-6.49,2.54a4.94,4.94,0,0,1-2.14,1c-3.87,1.37-7.36,3.82-11.64,4.05a3,3,0,0,0-1.71.81,11.22,11.22,0,0,1-5.16,2.38,10.67,10.67,0,0,0-2.53,1.26,11.17,11.17,0,0,1-2.45,1.43c-3.61.85-6.06,4.21-9.91,4.53a1.34,1.34,0,0,0-.76.55,7.54,7.54,0,0,1-5,2.63,4.6,4.6,0,0,0-2.18.89c-2.78,2.46-6.4,3.57-9.25,5.86s-6.35,3.58-9.07,6.11a19.15,19.15,0,0,1-5.84,4,23.57,23.57,0,0,0-7.4,5.1c-2.35,2.15-4.6,4.35-7.63,5.6a10.55,10.55,0,0,0-3.09,2.15c-4.86,4.56-9.66,9.19-14.74,13.5-1.83,1.55-3.54,3.22-5.34,4.79-1.44,1.26-3,2.39-4.37,3.68-2.09,1.94-4.47,3.71-6.06,6A105.55,105.55,0,0,1,929,804.24c-.66.67-1.21,1.45-1.88,2.12-3.08,3.14-3.17,8-6.22,11.14a3.12,3.12,0,0,0-.45,1.83,15.5,15.5,0,0,1-2,6.8,7.62,7.62,0,0,0,0,7.82,51.59,51.59,0,0,0,5.48,7.22,13.54,13.54,0,0,0,4.13,3.21,9.16,9.16,0,0,0,9.15-.33,10.22,10.22,0,0,1,4.42-1.7,12.22,12.22,0,0,0,6.12-2.43c1.46-1.06,3.63-1.08,5.31-1.9s3-2.84,5.24-3.16a7.82,7.82,0,0,0,3-1.32c2.89-1.94,6.61-2.27,9.17-4.87.48-.49,1.52-.4,2.28-.65a8.62,8.62,0,0,0,2.63-1c2.65-2.1,6.43-2.08,8.77-4.77a3.62,3.62,0,0,1,2.24-.73c2.59-.22,5-.56,6.94-2.71.56-.63,1.73-.71,2.63-1a14.23,14.23,0,0,0,3.54-1.32,10.73,10.73,0,0,1,5.82-1.93,6.06,6.06,0,0,0,4.37-1.67c1.43-1.56,3.29-1.87,5.23-2,1.77-.13,3.56-.22,5-1.42a8.54,8.54,0,0,1,4.88-1.75,12.55,12.55,0,0,0,6.27-2.13,9.89,9.89,0,0,1,4-1.35,33,33,0,0,1,4.78-.22,9.12,9.12,0,0,0,5.84-1.76c1.84-1.46,4.11-1.7,6.37-1.76q5.52-.13,11-.21a12.6,12.6,0,0,0,6.44-1.53,10.85,10.85,0,0,1,4.09-1.15,44.06,44.06,0,0,1,5.27-.2q31.68,0,63.35,0a22.16,22.16,0,0,1,3.83.15,18.9,18.9,0,0,1,5,1.37,13.68,13.68,0,0,0,6,1.41c3,0,6.09,0,9.12.25a14.21,14.21,0,0,1,5.53,1.26,16.32,16.32,0,0,0,6.18,2.34,2.58,2.58,0,0,1,2.35,2.63c.25,3.85.43,7.72-2.08,11a7.52,7.52,0,0,0-1.36,4.51,47.87,47.87,0,0,1-.25,4.79,9.62,9.62,0,0,1-1.08,4.1c-1.67,2.38-1.94,5-2.29,7.73-.31,2.38-.56,4.77-2.1,6.78-1,1.35-1,3-1.19,4.57s-.23,3.74-1.17,5c-1.92,2.65-2.37,5.52-2.52,8.58-.1,2.08-.12,4.23-1.42,6a11.59,11.59,0,0,0-1.85,5.37c-.25,1.56-.34,3.42-1.25,4.56-2,2.48-2.16,5.24-2.27,8.13-.08,2.08-.1,4.22-1.41,6a12.59,12.59,0,0,0-1.89,5.36c-.33,1.7-.54,3.66-1.52,5a11,11,0,0,0-2,6.74,11.38,11.38,0,0,1-2.23,7.19,8.09,8.09,0,0,0-1.44,4.49c-.18,1.58-.15,3.38-.92,4.65-1.55,2.54-1.87,5.37-2.8,8a79.78,79.78,0,0,1-4.68,10.88,19.34,19.34,0,0,0-2.07,5.78c-.24,1.39-.37,3.08-1.22,4-1.88,2.12-1.75,4.74-2.45,7.15s-3,4.21-3.13,6.93a7.49,7.49,0,0,1-.28,1.41,3.11,3.11,0,0,1-.49,1.34c-2.06,2.09-2,4.92-2.9,7.45a75,75,0,0,1-4.79,10.85,48.13,48.13,0,0,0-2.1,4.78c-.69,1.75-1.82,3.32-2.67,5a5.47,5.47,0,0,0-.4,1.86,14.25,14.25,0,0,1-2.5,6.13c-1.24,2-1.87,4.33-2.78,6.51,0,.14-.24.22-.31.36-1.62,3.23-2.71,6.72-4.75,9.76a1.35,1.35,0,0,0-.11.46,8.46,8.46,0,0,1-1.91,4.31,15.72,15.72,0,0,0-1.6,3.44c-.52,1.14-1.07,2.27-1.62,3.4s-1.15,2.26-1.69,3.4c-.41.86-.55,2-1.19,2.55a8.76,8.76,0,0,0-2.74,5.43,3.28,3.28,0,0,1-.83,1.7c-1.41,1.41-1.83,3.33-2.75,5-1.36,2.49-3.2,4.71-3.67,7.65-.09.54-.76,1-1.15,1.49s-1.27,1.19-1.41,1.89c-.68,3.39-3.4,5.74-4.41,9a9.54,9.54,0,0,1-1.53,2.4c-1.38,1.94-3.23,3.69-4,5.84a29.1,29.1,0,0,1-4.13,6.91c-1.58,2.17-3.57,4.06-4.11,6.89-.14.68-1,1.19-1.42,1.87-1.7,2.82-4.86,4.68-5.42,8.29-.1.67-.9,1.26-1.42,1.85-2.19,2.51-4.64,4.82-5.43,8.26a4.23,4.23,0,0,1-1,1.62,70.91,70.91,0,0,1-6,6.79,10.41,10.41,0,0,0-3.35,5,7.31,7.31,0,0,1-1.58,2.32c-3.24,4.09-7.23,7.54-9.88,12.14a45.54,45.54,0,0,1-4.46,5.61,81.77,81.77,0,0,1-10.06,10.74,8.66,8.66,0,0,0-1.37,1.92c-1,1.45-1.9,2.93-2.86,4.39-2,3.11-4.78,5.54-7.36,8.14-4.23,4.29-8.33,8.71-12.53,13-3.76,3.86-7.6,7.63-11.37,11.47-5.11,5.2-10.1,10.51-15.29,15.63-5.86,5.78-11.84,11.44-17.82,17.1-2.55,2.4-4.93,5.16-7.89,6.91-5.57,3.3-9.63,8.28-14.6,12.23-4,3.14-7.42,6.93-11.11,10.42a7.72,7.72,0,0,1-1.85,1.5c-3.84,1.82-6.52,5-9.53,7.82-2.46,2.33-2.17,6-4.75,8.16-.53.44-.59,1.45-.84,2.21a3.36,3.36,0,0,0-.14,1c0,2.71-.12,5.43,0,8.14a5.16,5.16,0,0,0,1.08,3.09c1.81,1.93,3.23,4.43,6.2,5a9.6,9.6,0,0,1,2.16,1,18.52,18.52,0,0,0,14.89.37,27.38,27.38,0,0,1,8.78-2.07c1.4,0,3.14-.13,4.1-.93,2.69-2.25,5.78-2.47,9-2.77a12.17,12.17,0,0,0,4.56-1.19c3.9-2.16,8.45-2.72,12.22-5.17a4.49,4.49,0,0,1,1.87-.34,8,8,0,0,0,4.41-1.69,5.39,5.39,0,0,1,2.1-1.11c3.38-.84,6.91-1.2,9.75-3.57.44-.37,1.25-.25,1.85-.47a10.52,10.52,0,0,0,3-1.28,11.19,11.19,0,0,1,5.73-2.24,9,9,0,0,0,5.25-2c.76-.69,2-.85,3-1.26s2-.5,2.57-1.14c1.47-1.72,3.37-2.31,5.42-2.8a10.07,10.07,0,0,0,2.08-1.13c1.26-.65,2.53-1.27,3.8-1.91s2.51-1.31,3.78-1.94a16.29,16.29,0,0,1,3-1.38,7.16,7.16,0,0,0,4.07-2.3,6.16,6.16,0,0,1,2.45-1.36c.88-.37,2-.33,2.71-.89a21.9,21.9,0,0,1,5.37-3,26.24,26.24,0,0,0,5.13-3.4,33.9,33.9,0,0,1,5.73-3.37c2.55-1.23,4.7-3.22,7.61-3.81.53-.11.92-.85,1.41-1.25,1.84-1.5,3.51-3.43,5.61-4.36a33.64,33.64,0,0,0,6.49-3.87c2.28-1.68,4.43-3.67,7.32-4.43.7-.18,1.23-1,1.86-1.45,2-1.56,3.78-3.54,6-4.56a23.81,23.81,0,0,0,6.62-4.62c2.07-2,4.39-3.66,6.47-5.61,1.86-1.74,3.66-3.58,6.32-4.16a3.71,3.71,0,0,0,1.54-1.08c1.26-1.2,2.42-2.52,3.71-3.69,3.75-3.42,7.31-7,11.92-9.43a19.85,19.85,0,0,0,4.86-3.83c6.65-6.79,13.31-13.59,20.43-19.89,7.53-6.65,14.17-14.16,21.23-21.25,3.35-3.37,6.56-6.88,10-10.19,3.17-3.07,6-6.46,8.91-9.84,1.84-2.18,3.23-4.74,5.11-6.87,4.29-4.88,8.84-9.53,13.11-14.44,1.84-2.12,4.44-3.75,5.12-6.76.56-2.46,2.35-3.35,4.58-3.46a33.89,33.89,0,0,1,6.21.19,6.49,6.49,0,0,1,3.41,1.5,7.48,7.48,0,0,0,5.24,1.94c2.41.08,4.83.2,7,1.44a15.89,15.89,0,0,0,6.38,1.93,11.5,11.5,0,0,1,6.2,2.28,7.58,7.58,0,0,0,3.58,1c1.58.21,3.21.06,4.79.26,1.41.17,3.09.22,4.12,1,2.88,2.23,6.13,2.46,9.51,2.68a9.62,9.62,0,0,1,4.57,1.11c2.14,1.42,4.39,1.7,6.8,2s5,.32,6.93,1.49a16.39,16.39,0,0,0,8.18,2.16c1.88.1,4.1.07,5.55,1,2.71,1.79,5.63,2.15,8.63,2.52,1.91.23,3.9.26,5.47,1.52s3.46,1.5,5.39,1.69c1.41.14,3.13.15,4.12,1a13.6,13.6,0,0,0,6.84,3.11c.72.1,1.36.77,2,1.15a16.12,16.12,0,0,0,3,1.51,8.69,8.69,0,0,1,4.36,2.73c1.66,1.9,3.93,3.3,5.4,5.31,2,2.77,4.61,5.33,4.8,9.17a6.79,6.79,0,0,0,1.3,3.53,9.24,9.24,0,0,1,1.68,5.87c0,4.48,0,9-.16,13.43a8.1,8.1,0,0,1-.91,4.14c-1.74,2.56-1.92,5.34-2.09,8.23-.16,2.71-.46,5.37-2.26,7.69a7.85,7.85,0,0,0-1.1,3.58c-.22,1.58-.16,3.19-.25,4.79a7.06,7.06,0,0,1-1.44,4.49c-1.6,1.8-1.86,4-2.15,6.22-.19,1.56-.34,3.33-1.18,4.55a12.17,12.17,0,0,0-2,6.77,10,10,0,0,1-1.76,5.89c-1.46,1.88-1.76,4-2,6.28a13.58,13.58,0,0,1-1.37,5,18.12,18.12,0,0,0-1.84,5.39,10.47,10.47,0,0,1-1.56,4.45,10.11,10.11,0,0,0-2,6.23c-.08,1.78-.29,3.57-1.67,4.87-1.53,1.45-1.81,3.28-2,5.23-.11,1.26-.09,2.78-.78,3.7-1.94,2.56-2.34,5.53-3,8.49a8.13,8.13,0,0,1-1.35,3c-1.08,1.49-1.28,3.2-1.78,4.88-1.31,4.4-2.93,8.71-4.43,13.05a1.28,1.28,0,0,1-.29.38,8.12,8.12,0,0,0-2,5.28,9.88,9.88,0,0,1-2,5.76,7.71,7.71,0,0,0-1.45,4c-.24,3.82-.26,7.67-.19,11.5a5.36,5.36,0,0,0,1,3.1c1.59,2,3.47,3.72,5.18,5.6a5.52,5.52,0,0,0,4.28,1.81c3,0,6.08.06,9.11-.07a6.82,6.82,0,0,0,3.17-.91,51.78,51.78,0,0,0,4.53-3.47c2.11-1.69,4.07-3.6,6.32-5.06,3.31-2.12,6.08-4.61,7.69-8.26a10.69,10.69,0,0,1,1.35-2c3.27-4.24,7.75-7.56,9.81-12.74a2.65,2.65,0,0,1,.6-.75c2.5-2.86,5-5.7,7.51-8.58a5,5,0,0,0,1.17-2,12.42,12.42,0,0,1,3-5.34c1.92-2.3,4.08-4.46,5-7.45.13-.44.6-.75.83-1.17,1.76-3.2,4.78-5.54,6.13-9,.22-.57.82-1,1.17-1.51,2.85-4.37,6.85-8,8.65-13.07.15-.43.6-.73.86-1.13.77-1.19,1.53-2.38,2.27-3.59s1.2-2.23,1.91-3.27c1.43-2.09,3.29-4,4.34-6.21a97.83,97.83,0,0,1,7.83-13.54c1.34-2,2.82-3.81,3.46-6.19.19-.71.9-1.28,1.32-2a10,10,0,0,0,1.39-2.45,9.46,9.46,0,0,1,2.76-4.93,3.56,3.56,0,0,0,.89-1.67c.94-3.49,3.25-6.15,5.28-9a16.56,16.56,0,0,0,1.57-2.9c.32-.72.2-1.82.7-2.25,2.94-2.53,2.68-6.84,5.42-9.44.67-4,2.77-7.39,4.34-11,.75-1.73,1.13-3.6,2.2-5.25a8.62,8.62,0,0,0,1.15-3.6c.31-2.64,1.73-4.7,2.88-7s1.37-5.19,2-7.8a3.51,3.51,0,0,1,.71-1.24,8.68,8.68,0,0,0,1.61-5.42c.06-2.88.17-5.75.25-8.63C1450.16,1137.64,1450.13,1134.57,1452.67,1131.63ZM1312,612.78h0v16.31a12.43,12.43,0,0,0,1.69,6.84,12,12,0,0,1,1.57,5.44c.25,4.63,3.82,8.06,4.26,12.57,0,.27.32.56.56.75,1.48,1.15,2,2.78,2.54,4.49a9.17,9.17,0,0,0,1.66,2.84c3.14,4,6.77,7.57,9.24,12.1a20.55,20.55,0,0,0,4,4.71,95.39,95.39,0,0,0,14.59,11.42,35.87,35.87,0,0,0,4,2.59c1.59.74,3.26,1.24,4.52,2.59a3.16,3.16,0,0,0,1.68.84,12.51,12.51,0,0,1,6.07,2.64,5.31,5.31,0,0,0,2.64,1,15.39,15.39,0,0,1,7.59,2.64,5.34,5.34,0,0,0,2.76.64c7.18.39,14.36,1,21.54,1,6.54,0,13.09-.59,19.62-1a6.28,6.28,0,0,0,3.14-1,11.76,11.76,0,0,1,6.29-2,9.2,9.2,0,0,0,3.27-.65c2.71-1.29,5.37-2.72,8-4.19,2.89-1.63,5.56-3.88,8.64-4.93,3.37-1.14,5.79-3.36,8.19-5.54,4.69-4.26,9.06-8.87,13.44-13.46a18.18,18.18,0,0,0,3.88-5.36,22.58,22.58,0,0,1,4.51-6.69c1.46-1.61,2.09-3.43,3-5.27a46.15,46.15,0,0,0,3.79-10.19,5.45,5.45,0,0,1,1.22-2,6.9,6.9,0,0,0,1.41-4.47,48.56,48.56,0,0,1,.26-5.27,13.25,13.25,0,0,1,1.34-4.51,13.28,13.28,0,0,0,1.81-6.39c.14-5.43.22-10.86.1-16.29a11.83,11.83,0,0,0-1.31-5,18.59,18.59,0,0,1-2.12-8.74c0-1.6,0-3.28-1.1-4.57-1.64-1.94-2-4.27-2.51-6.64-.74-3.76-3.26-6.81-4.44-10.41-.13-.4-.71-.64-1-1a4.81,4.81,0,0,1-1-1.61c-1-3.93-3.63-6.56-6.48-9.17a84.64,84.64,0,0,1-6.94-7.23c-2.91-3.37-6.38-6.16-9.58-9.22s-7.66-5-11.63-7.22c-3.05-1.73-6.32-3-9.4-4.64a13.51,13.51,0,0,0-5.35-1.82,9.2,9.2,0,0,1-5.34-1.88c-1.74-1.45-3.76-1.67-5.86-1.67q-18.23,0-36.44,0a10.26,10.26,0,0,0-6.31,1.87,7,7,0,0,1-3.9,1.56c-4.94-.15-8.39,3.63-12.88,4.55a11,11,0,0,1-5.48,2.75,7.2,7.2,0,0,0-2.35,1.53c-2.48,2-4.62,4.38-7.71,5.53a6.66,6.66,0,0,0-1.93,1.4c-2.47,2.23-5,4.39-7.35,6.78-3.08,3.15-6.62,6-8,10.48-.26.81-1.41,1.3-1.9,2.09-1.25,2-4,3.13-4,5.76-.08,2.88-2.67,4.26-3.45,6.65-.2.6-.21,1.27-.41,1.87a6,6,0,0,1-1,2.15c-1.54,1.62-1.85,3.63-2.29,5.68a15.11,15.11,0,0,1-1.68,4.91,10.5,10.5,0,0,0-1.6,5.89C1312,601.28,1312,607,1312,612.78Z" transform="translate(-333.19 -372.21)"/><path d="M333.19,1832.46h215.6v65.42H413.26v80.59H539.9v64.89H413.26v141.82H333.19Z" transform="translate(-333.19 -372.21)"/><path d="M678.05,1858.11c0,22-16.74,39.77-42.91,39.77-25.12,0-41.86-17.79-41.34-39.77-.52-23,16.22-40.3,41.87-40.3S677.53,1835.08,678.05,1858.11ZM595.9,2185.18v-255.9h79.54v255.9Z" transform="translate(-333.19 -372.21)"/><path d="M828.24,1856v73.27h57v58.61h-57v92.62c0,30.88,7.33,45,31.4,45a130.63,130.63,0,0,0,23.55-2.09l.52,60.18c-10.47,4.18-29.31,6.8-51.81,6.8-25.64,0-47.1-8.9-59.65-22-14.66-15.18-22-39.77-22-75.88V1987.89h-34v-58.61h34v-55.47Z" transform="translate(-333.19 -372.21)"/><path d="M1056.6,1899.45H961.88v-67H1233v67h-96.29v285.73H1056.6Z" transform="translate(-333.19 -372.21)"/><path d="M1244.47,2013.53c0-37.68-1-62.27-2.1-84.25h68.56l2.62,47.1h2.09c13.08-37.16,44.48-52.86,69.08-52.86,7.32,0,11,0,16.74,1v74.83a113.8,113.8,0,0,0-21.45-2.09c-29.31,0-49.19,15.7-54.43,40.29a93.65,93.65,0,0,0-1.57,17.8v129.78h-79.54Z" transform="translate(-333.19 -372.21)"/><path d="M1583.05,2185.18l-4.71-25.65h-1.57c-16.74,20.41-42.91,31.4-73.26,31.4-51.81,0-82.68-37.68-82.68-78.49,0-66.46,59.66-98.39,150.19-97.86v-3.67c0-13.6-7.33-33-46.58-33-26.16,0-53.9,8.9-70.64,19.37L1439.14,1946c17.8-9.94,52.86-22.5,99.43-22.5,85.3,0,112.51,50.24,112.51,110.42v89c0,24.6,1.05,48.15,3.67,62.28Zm-9.42-120.89c-41.86-.52-74.31,9.42-74.31,40.3,0,20.41,13.61,30.35,31.4,30.35,19.89,0,36.11-13.08,41.34-29.31a56.78,56.78,0,0,0,1.57-13.6Z" transform="translate(-333.19 -372.21)"/><path d="M1905.94,2178.9c-14.13,6.28-40.82,11.51-71.17,11.51-82.68,0-135.54-50.24-135.54-130.83,0-74.83,51.29-136.06,146.53-136.06,20.93,0,44,3.66,60.7,9.94l-12.56,59.14c-9.42-4.19-23.55-7.85-44.48-7.85-41.86,0-69.08,29.83-68.55,71.69,0,47.1,31.4,71.7,70.12,71.7,18.84,0,33.49-3.14,45.53-7.85Z" transform="translate(-333.19 -372.21)"/><path d="M2029.44,2037.08h1c5.76-10.47,12-20.93,18.32-30.88l51.81-76.92h95.76l-91.58,103.61,104.66,152.29h-97.86L2049.84,2080l-20.4,25.12v80.07h-79.55V1813.63h79.55Z" transform="translate(-333.19 -372.21)"/></svg>